SPORT: Scrum V
On: BBC 2 Wales 
Date: Sunday 3rd March 2013 
Time: 18:30 to 19:15 

Ross Harries presents Scrum V with a round-up of the weekend's Pro 12 action and a look ahead to Wales's penultimate game of the Six Nations against Scotland. Studio guests include former Wales internationals Jonathan Davies and Martyn Williams.


General
Complete name: 2013.03.03.Scrum.V.pdtv.x264.mp4
Format : MPEG-4
Format profile : Base Media
Codec ID : isom
File size: 414 MiB
Duration : 44mn 1s
Overall bit rate mode: Variable
Overall bit rate : 1 314 Kbps

Video
ID : 1
Format : AVC
Format/Info: Advanced Video Codec
Format profile : High@L3.1
Format settings, CABAC : Yes
Format settings, ReFrames: 5 frames
Codec ID : avc1
Codec ID/Info: Advanced Video Coding
Duration : 44mn 1s
Bit rate : 1 182 Kbps
Maximum bit rate : 5 383 Kbps
Width: 720 pixels
Height : 416 pixels
Display aspect ratio : 1.731
Frame rate mode: Constant
Frame rate : 25.000 fps
Color space: YUV
Chroma subsampling : 4:2:0
Bit depth: 8 bits
Scan type: Progressive
Bits/(Pixel*Frame) : 0.158
Stream size: 372 MiB (90%)
Writing library: x264 core 130 r2273 b3065e6

Audio
ID : 2
Format : AAC
Format/Info: Advanced Audio Codec
Format profile : LC
Codec ID : 40
Duration : 44mn 1s
Bit rate mode: Variable
Bit rate : 128 Kbps
Maximum bit rate : 146 Kbps
Channel(s) : 2 channels
Channel positions: Front: L R
Sampling rate: 48.0 KHz
Compression mode : Lossy
Delay relative to video: 80ms
Stream size: 40.3 MiB (10%)
Language : English